<?xml version="1.0" encoding="UTF-8"?>
<svg id="Layer_1" data-name="Layer 1" xmlns="http://www.w3.org/2000/svg" version="1.1" viewBox="0 0 512 512">
  <defs>
    <style>
      .cls-1 {
        fill: #000;
        fill-rule: evenodd;
        stroke-width: 0px;
      }
    </style>
  </defs>
  <path class="cls-1" d="M256.3,22c129.5,0,234.5,105,234.5,234.5s-105,234.5-234.5,234.5S21.7,386,21.7,256.5,126.7,22,256.3,22h0ZM386.8,359.6l-92.9-92.9-33.2,33.2c-2.4,2.4-6.4,2.5-8.9,0,0,0,0,0,0,0l-33.2-33.2-92.9,92.9h261ZM302.8,257.8l97.5,97.5c.2-.6.3-1.3.3-2v-193.3l-97.8,97.8ZM112.3,355.3l97.5-97.5-97.8-97.8v193.3c0,.7.1,1.3.3,2h0ZM123.1,153.5l133.1,133.1,133.1-133.1H123.1Z"/>
</svg>