<svg id="Слой_1" enable-background="new 0 0 512 512" height="512" viewBox="0 0 512 512" width="512" xmlns="http://www.w3.org/2000/svg"><g><path d="m148.21 512c-10.79 0-20.934-4.204-28.579-11.836-7.632-7.638-11.842-17.79-11.842-28.586s4.211-20.948 11.842-28.582l187.001-186.998-187.001-186.998c-7.632-7.635-11.842-17.786-11.842-28.582s4.211-20.948 11.842-28.582 17.789-11.836 28.579-11.836 20.948 4.201 28.579 11.832l215.58 215.584c7.632 7.635 11.842 17.786 11.842 28.582s-4.211 20.948-11.842 28.582l-215.58 215.58c-7.645 7.636-17.79 11.84-28.579 11.84z"/></g></svg>